<?xml version="1.0" standalone="no"?>
<!DOCTYPE svg PUBLIC "-//W3C//DTD SVG 20010904//EN"
 "http://www.w3.org/TR/2001/REC-SVG-20010904/DTD/svg10.dtd">
<svg version="1.0" xmlns="http://www.w3.org/2000/svg"
 width="852.635286pt" height="851.647888pt" viewBox="0 0 852.635286 851.647888"
 preserveAspectRatio="xMidYMid meet">
<metadata>
Created by potrace 1.12, written by Peter Selinger 2001-2015
</metadata>
<g transform="translate(-31.692635,884.690541) scale(0.100000,-0.100000)"
fill="#000000" stroke="none">
<path d="M4295 8844 c-697 -56 -1312 -249 -1885 -591 -519 -311 -989 -750
-1337 -1248 -410 -587 -659 -1259 -739 -1997 -20 -184 -23 -624 -5 -803 85
-847 408 -1640 931 -2284 192 -236 414 -458 634 -634 691 -555 1504 -880 2365
-947 171 -13 477 -13 649 0 1470 112 2805 1005 3477 2325 242 475 390 988 446
1540 18 181 16 618 -5 810 -133 1231 -755 2301 -1763 3033 -587 427 -1250 684
-2003 777 -120 15 -649 28 -765 19z m631 -519 c200 -19 303 -36 490 -79 475
-109 966 -339 1366 -639 250 -187 532 -459 707 -680 47 -61 96 -121 107 -135
l21 -26 -14 64 c-19 87 -22 293 -4 343 15 43 66 107 85 107 26 0 209 -232 340
-430 246 -370 410 -729 535 -1170 112 -397 158 -765 148 -1185 -7 -284 -28
-466 -88 -757 -13 -65 -11 -64 -105 -47 -77 14 -146 52 -195 107 -25 29 -40
40 -43 31 -2 -8 -18 -75 -36 -149 -135 -561 -445 -1163 -810 -1575 -527 -595
-1129 -978 -1861 -1185 -273 -77 -555 -118 -869 -127 -617 -16 -1165 101
-1717 367 -546 263 -1068 699 -1438 1203 -27 37 -50 66 -51 64 -1 -1 17 -61
42 -132 74 -218 85 -359 38 -459 l-18 -36 -29 27 c-96 91 -315 378 -433 568
-344 550 -536 1089 -621 1740 -25 198 -25 708 0 915 19 152 67 407 93 499 l15
54 67 -6 c91 -9 159 -44 226 -119 l55 -60 6 28 c4 16 25 92 47 169 116 398
322 811 587 1175 320 439 755 824 1228 1086 479 266 982 417 1523 457 131 10
464 5 606 -8z"/>
<path d="M6435 7293 c-164 -24 -313 -125 -572 -391 l-162 -166 -83 12 c-199
30 -260 34 -423 29 -125 -4 -200 -12 -285 -30 -82 -17 -120 -22 -134 -15 -11
6 -92 83 -180 172 -182 183 -293 271 -415 329 -71 35 -95 41 -165 45 -105 6
-167 -18 -231 -90 -86 -96 -120 -246 -112 -488 7 -177 29 -316 92 -579 25
-101 45 -204 45 -230 0 -26 -13 -95 -30 -154 -44 -156 -53 -234 -47 -382 8
-193 63 -373 162 -534 l45 -73 -54 -91 c-51 -87 -142 -263 -201 -390 -31 -66
-49 -82 -228 -190 -302 -183 -509 -376 -681 -635 -212 -319 -348 -756 -386
-1233 -12 -153 0 -205 56 -262 72 -72 -76 -67 1953 -67 1499 1 1833 3 1864 14
82 30 134 95 151 191 4 22 30 130 57 240 118 472 150 675 150 935 0 230 -24
392 -101 680 -77 288 -89 387 -67 559 12 95 20 130 36 150 216 268 312 565
282 869 -10 96 -58 301 -90 385 -18 46 -13 112 23 297 70 356 89 593 62 768
-18 120 -59 216 -109 258 -60 50 -149 78 -222 67z m101 -152 c72 -44 112 -206
100 -405 -10 -175 -24 -276 -68 -491 -49 -242 -52 -309 -14 -415 67 -190 93
-359 76 -508 -29 -260 -114 -438 -299 -622 -111 -111 -227 -191 -451 -311
-329 -176 -378 -193 -570 -193 -120 0 -129 1 -245 41 -111 38 -300 121 -552
244 -114 55 -251 144 -330 214 -177 157 -299 419 -310 670 -6 126 7 211 57
395 29 105 23 181 -38 445 -67 294 -76 352 -76 540 -1 173 10 239 51 316 93
175 314 74 689 -315 170 -176 192 -186 344 -146 172 44 465 52 660 16 182 -34
197 -28 379 164 136 144 305 291 374 326 53 28 130 53 162 54 17 0 44 -9 61
-19z m-2417 -2550 c130 -112 258 -183 628 -350 242 -109 320 -137 430 -156
164 -29 304 -12 466 54 124 50 405 205 547 300 l115 77 0 -155 c0 -167 -1
-161 72 -431 80 -296 103 -449 103 -670 0 -246 -27 -413 -146 -900 -76 -308
-78 -314 -110 -329 -18 -8 -511 -11 -1835 -11 l-1810 0 -24 25 c-30 29 -32 67
-10 265 63 587 273 1056 613 1370 113 104 210 176 374 278 234 145 219 128
333 358 107 215 170 324 187 324 6 0 36 -22 67 -49z"/>
<path d="M5342 5937 c-13 -15 -39 -92 -196 -583 -64 -198 -116 -368 -116 -377
0 -14 11 -17 69 -17 l69 0 21 68 c11 37 81 256 155 487 74 230 132 423 130
427 -9 14 -121 9 -132 -5z"/>
<path d="M4675 5673 c-127 -64 -243 -124 -260 -133 -28 -16 -30 -21 -33 -82
-2 -44 1 -68 10 -75 35 -28 512 -264 524 -259 10 4 14 24 14 71 0 53 -3 67
-17 73 -10 4 -97 47 -193 96 l-174 88 189 97 190 96 0 69 c0 38 -5 71 -10 73
-6 2 -114 -49 -240 -114z"/>
<path d="M5581 5781 c-8 -5 -11 -30 -9 -72 l3 -64 190 -96 189 -97 -124 -63
c-69 -34 -151 -75 -182 -90 -67 -33 -80 -53 -76 -122 3 -44 6 -52 23 -52 11 0
134 58 273 128 l253 129 -3 71 -3 72 -55 28 c-115 60 -436 222 -451 229 -9 3
-21 3 -28 -1z"/>
</g>
</svg>
